<svg id="Capa_1" xmlns="http://www.w3.org/2000/svg" version="1.1" viewBox="0 0 48 48">
  <g>
    <path class="st0" d="M43.77,13.9v12.28l-8.29-12.28h-3.99v3.57c-1.99-2.51-5-3.98-8.25-3.98-5.8,0-10.52,4.73-10.52,10.55s4.72,10.49,10.52,10.49c3.26,0,6.26-1.46,8.25-3.96v3.54h4.24v-12.28l8.31,12.28h3.96V13.9h-4.23ZM23.24,30.33c-3.46,0-6.28-2.83-6.28-6.3s2.82-6.36,6.28-6.36,6.28,2.85,6.28,6.36-2.82,6.3-6.28,6.3Z"/>
    <path class="st0" d="M37.25,36.48c-3.61,4.07-8.75,6.4-14.1,6.4-10.39,0-18.84-8.48-18.84-18.91S12.76,5.07,23.15,5.07c5.35,0,10.48,2.33,14.1,6.4l.64.73,3.21-2.9-.64-.71c-2.11-2.37-4.68-4.26-7.62-5.64-2.84-1.34-6.01-2-9.69-2-3.29,0-6.31.57-9,1.68-2.71,1.13-5.12,2.75-7.39,4.96l-.02.02c-2.11,2.17-3.78,4.65-4.95,7.38C.61,17.86,0,20.89,0,23.97s.59,6.07,1.81,9.01c1.16,2.76,2.83,5.25,4.97,7.39,2.26,2.19,4.68,3.81,7.39,4.96,2.8,1.15,5.82,1.74,8.99,1.74,3.52,0,6.78-.69,9.67-2.04,2.85-1.27,5.42-3.17,7.64-5.65l.64-.71-3.21-2.9-.64.73Z"/>
  </g>
</svg>